<svg width="25" height="24" viewBox="0 0 25 24" fill="none" xmlns="http://www.w3.org/2000/svg">
<path d="M17.4237 0H7.09522C5.72334 0 5.03739 1.01974e-07 4.48616 0.340685C3.93492 0.68137 3.62815 1.29489 3.01463 2.52194L1.41372 6.56881C1.04385 7.5038 0.72024 8.6058 1.34285 9.39536C1.76054 9.92503 2.40802 10.265 3.13494 10.265C4.39477 10.265 5.41606 9.24378 5.41606 7.98391C5.41606 9.24378 6.43736 10.265 7.69718 10.265C8.957 10.265 9.97829 9.24378 9.97829 7.98391C9.97829 9.24378 10.9996 10.265 12.2594 10.265C13.5193 10.265 14.5406 9.24378 14.5406 7.98391C14.5406 9.24378 15.5618 10.265 16.8217 10.265C18.0815 10.265 19.1028 9.24378 19.1028 7.98391C19.1028 9.24378 20.124 10.265 21.3839 10.265C22.1108 10.265 22.7583 9.92503 23.1761 9.39536C23.7987 8.6058 23.4751 7.5038 23.1052 6.56881L21.5044 2.52194C20.8907 1.29489 20.584 0.68137 20.0328 0.340685C19.4816 1.01974e-07 18.7956 0 17.4237 0Z" fill="#FFB224"/>
<path fill-rule="evenodd" clip-rule="evenodd" d="M21.3855 21.9561H23.6666C24.139 21.9561 24.522 22.3391 24.522 22.8115C24.522 23.2839 24.139 23.6669 23.6666 23.6669H0.855419C0.382988 23.6669 0 23.2839 0 22.8115C0 22.3391 0.382988 21.9561 0.855419 21.9561H3.13654V11.9762C3.98469 11.9762 4.77106 11.7117 5.41766 11.2607C6.06426 11.7117 6.85063 11.9762 7.69877 11.9762C8.54693 11.9762 9.3333 11.7117 9.97989 11.2607C10.6265 11.7117 11.4129 11.9762 12.261 11.9762C13.1091 11.9762 13.8955 11.7117 14.5421 11.2607C15.1887 11.7117 15.9751 11.9762 16.8232 11.9762C17.6714 11.9762 18.4578 11.7117 19.1044 11.2607C19.7509 11.7117 20.5374 11.9762 21.3855 11.9762V21.9561ZM9.40961 21.9561H15.1124V18.8196C15.1124 17.7536 15.1124 17.2206 14.8832 16.8236C14.7331 16.5635 14.517 16.3475 14.257 16.1973C13.86 15.9682 13.327 15.9682 12.261 15.9682C11.195 15.9682 10.6621 15.9682 10.265 16.1973C10.005 16.3475 9.78897 16.5635 9.63882 16.8236C9.40961 17.2206 9.40961 17.7536 9.40961 18.8196V21.9561Z" fill="#FFB224"/>
</svg>
