<svg width="23" height="29" viewBox="0 0 23 29" fill="none" xmlns="http://www.w3.org/2000/svg">
<path d="M4.36663 17.8671C4.36663 17.718 4.36992 17.5685 4.38555 17.4219H2.61619C2.60548 17.5685 2.60254 17.718 2.60254 17.8671C2.60254 18.0191 2.60548 18.1657 2.61619 18.3123H4.38555C4.36992 18.1657 4.36663 18.0166 4.36663 17.8671Z" fill="#FFB224"/>
<path d="M7.49768 12.162C7.66488 12.0561 7.83582 11.956 8.00919 11.8679L8.07676 11.835L7.195 10.3032C6.97422 10.4148 6.75921 10.5384 6.55078 10.6739L7.433 12.2056L7.49768 12.162Z" fill="#FFB224"/>
<path d="M3.56934 13.9294L5.10149 14.8112L5.47214 14.1679L3.93959 13.2856C3.8045 13.4945 3.68097 13.7086 3.56934 13.9294Z" fill="#FFB224"/>
<path d="M17.1315 20.9894C17.0396 21.1633 16.9428 21.3338 16.8341 21.4985L16.79 21.5632L18.3226 22.4454C18.4577 22.2366 18.5813 22.0253 18.6958 21.8046L17.1669 20.9194L17.1315 20.9894Z" fill="#FFB224"/>
<path d="M5.13361 20.987L5.09821 20.9194L3.56934 21.8013C3.67808 22.022 3.8045 22.2366 3.93964 22.4454L5.4722 21.5632L5.42773 21.4985C5.32182 21.3338 5.22219 21.1633 5.13361 20.987Z" fill="#FFB224"/>
<path d="M7.49768 23.5694L7.433 23.5249L6.55078 25.0575C6.75921 25.1929 6.97416 25.319 7.195 25.431L8.07676 23.8988L8.00919 23.8663C7.83576 23.7782 7.66482 23.6781 7.49768 23.5694Z" fill="#FFB224"/>
<path d="M15.7105 10.6739C15.5021 10.5384 15.2896 10.4149 15.0701 10.3032L14.1846 11.8325L14.8283 12.2056L15.7105 10.6739Z" fill="#FFB224"/>
<path d="M10.687 24.6128V26.3801C10.834 26.3933 10.9831 26.3958 11.1318 26.3958C11.2817 26.3958 11.4308 26.3933 11.5774 26.3801V24.6128V24.5942H10.687V24.6128Z" fill="#FFB224"/>
<path d="M11.5774 11.1223V9.3549C11.4308 9.34176 11.2817 9.33887 11.1318 9.33887C10.9831 9.33887 10.834 9.34176 10.687 9.3549V11.1223V11.1408H11.5774V11.1223Z" fill="#FFB224"/>
<path d="M14.1846 23.9017L15.0701 25.431C15.2896 25.3157 15.5021 25.1929 15.7105 25.0575L14.8283 23.5249L14.1846 23.9017Z" fill="#FFB224"/>
<path d="M18.6958 13.9294C18.5838 13.7086 18.4577 13.4945 18.3226 13.2856L16.79 14.1679L17.164 14.8112L18.6958 13.9294Z" fill="#FFB224"/>
<path d="M19.6478 17.4219H17.878H17.8594V18.3123H17.878H19.6478C19.6584 18.1657 19.6609 18.0166 19.6609 17.8671C19.6609 17.718 19.6585 17.5685 19.6478 17.4219Z" fill="#FFB224"/>
<path d="M21.7668 8.3982C21.7668 8.3982 21.7186 9.31915 20.836 9.71121C19.9533 10.1037 19.0707 9.22111 20.3459 8.24C21.6206 7.25895 21.5225 4.02331 20.3459 3.04225C20.6399 3.82682 19.4134 4.90592 18.6296 4.21939C17.8446 2.94427 18.6782 0.835524 19.8553 0.247323C18.9726 -0.440054 16.3734 0.344969 16.3734 2.11065C16.3734 3.51514 16.4224 4.07241 15.2453 4.02336C13.957 3.96899 15.0497 1.76679 15.2453 1.47266C11.4203 2.01221 13.578 5.39608 12.1068 5.49372C10.6356 5.59216 11.5187 4.02331 11.6167 3.82648C9.05864 4.2519 9.68218 5.85118 7.89877 7.21454C3.32785 8.59961 0.000396476 12.8439 0 17.8679C0.000396476 24.0162 4.98359 28.999 11.1315 28.9994C17.2799 28.999 22.2631 24.0162 22.2635 17.8678C22.2635 16.4473 21.9946 15.0906 21.5098 13.8414C21.6309 12.3459 22.1696 11.4295 22.35 10.6873C22.7541 9.02667 21.7668 8.3982 21.7668 8.3982ZM11.1315 27.5632C8.45191 27.5628 6.03261 26.4792 4.276 24.7234C2.52023 22.9664 1.43655 20.5471 1.43621 17.8679C1.43655 15.1879 2.52023 12.7686 4.276 11.0119C6.03261 9.25611 8.45191 8.17249 11.1315 8.17249C13.8111 8.17249 16.2304 9.25611 17.9875 11.0119C19.7433 12.7686 20.8269 15.1879 20.8273 17.8679C20.8269 20.5471 19.7433 22.9664 17.9875 24.7234C16.2304 26.4792 13.8111 27.5628 11.1315 27.5632Z" fill="#FFB224"/>
<path d="M14.9248 13.2342L11.1574 17.2585L8.24883 15.2334C7.97702 15.0328 7.56882 15.1255 7.33858 15.4402C7.10834 15.754 7.14249 16.1708 7.41561 16.371L10.704 18.9081L10.7493 18.9344L10.7703 18.9455C11.0549 19.1041 11.4309 19.0201 11.6817 18.7437L11.7036 18.7223L15.7341 13.9537C15.964 13.6967 15.9681 13.3269 15.7444 13.1279C15.5207 12.9294 15.1537 12.9772 14.9248 13.2342Z" fill="#FFB224"/>
</svg>
