<svg width="24" height="24" viewBox="0 0 24 24" fill="none" xmlns="http://www.w3.org/2000/svg">
<path d="M2.63637 6.52385C2.36364 6.52385 2.09091 6.52385 1.81818 6.52385C1.63636 6.52385 1.45455 6.61115 1.27273 6.61115C1.09091 6.69846 1 6.87308 1 7.04769C1 7.135 1 7.135 1 7.135C1.09091 7.39692 1.18182 7.57154 1.27273 7.83346C1.81818 8.88116 2.36364 9.92885 2.90909 10.9765C3.72728 12.2862 4.54546 13.5958 5.54546 14.8181C6.00001 15.342 6.54546 15.8658 7.09092 16.3897C7.72728 16.8262 8.36365 17.2627 9.09092 17.612C10.0909 18.0485 10.3636 17.9612 11.4545 17.8739C11.8182 17.8739 12.1818 17.8739 12.6364 17.8739C12.7273 17.8739 13.7273 17.8739 13.8182 17.8739C14.0909 17.7866 14.1818 18.0485 14.2727 17.7866C14.2727 17.6993 14.3636 17.5247 14.3636 17.4374C14.3636 17.1754 14.4545 16.8262 14.4545 16.5643C14.5454 16.3023 14.6364 16.0404 14.8182 15.7785C15.0909 15.4293 15.3636 15.4293 15.7273 15.6039C16 15.6912 16.1818 15.8658 16.3636 16.1277C16.7273 16.5643 17.1818 16.9135 17.5454 17.35C17.8182 17.612 18.1818 17.7866 18.5454 17.9612C18.5454 18.0485 19.3636 17.9612 19.7273 17.9612C20 17.9612 20.6364 17.9612 20.9091 17.9612C21.6364 17.9612 21.3636 17.9612 22.0909 17.9612C22.3636 17.9612 23 17.9612 23.2727 17.9612C23.6364 17.7866 24 17.6993 23.8182 17.35C23.7273 17.1754 23.7273 17.0881 23.6364 16.9135C23.3636 16.477 23 16.0404 22.6364 15.6912C22.0909 15.1673 21.5455 14.7308 21.0909 14.2069C20.8182 14.0323 20.6364 13.7704 20.4545 13.5085C20.1818 13.2465 20.1818 12.8973 20.3636 12.6354C20.4545 12.5481 20.4545 12.3735 20.5454 12.2862C20.9091 11.7623 21.3636 11.3258 21.7273 10.8019C22.2727 10.1035 22.9091 9.405 23.3636 8.61923C23.5455 8.27 23.7273 7.92077 23.9091 7.57154C23.9091 7.48423 24 7.30962 24 7.22231C24 6.96039 23.9091 6.78577 23.5455 6.69846C23.2727 6.61115 23.0909 6.61115 22.8182 6.61115C22 6.61115 21.1818 6.61115 20.3636 6.61115C20 6.61115 19.6364 6.61115 19.2727 6.61115C19 6.61115 18.8182 6.69846 18.7273 6.87308C18.6364 6.96039 18.6364 7.04769 18.6364 7.135C18.2727 8.09539 17.8182 9.05577 17.1818 9.92885C16.8182 10.54 16.4545 11.0638 15.9091 11.5877C15.7273 11.7623 15.5454 11.9369 15.2727 12.0242C15.1818 12.1115 15 12.0242 14.9091 11.9369C14.8182 11.8496 14.7273 11.7623 14.7273 11.675C14.5454 11.4131 14.5454 11.1512 14.5454 10.8892C14.5454 10.4527 14.5454 10.1035 14.5454 9.66693C14.5454 9.31769 14.5454 8.88116 14.5454 8.53193C14.5454 8.35731 14.5454 8.18269 14.5454 8.09539C14.5454 7.74616 14.5454 7.30962 14.5454 6.96039C14.4545 6.52385 14.2727 6.26192 13.8182 6.17462C13.2727 6 12.8182 6 12.3636 6C11.7273 6 11 6 10.3636 6C10.0909 6 9.72726 6.08731 9.45456 6.17462C9.18183 6.26192 8.18183 6.34923 8.00001 6.61115C7.9091 6.69846 8.72728 6.69846 8.72728 6.78577C8.72728 6.87308 8.72728 6.87308 8.81819 6.96039C8.9091 6.96039 7.9091 7.74616 8.09092 7.83346C8.45455 7.92077 9.72726 7.39692 9.90907 7.74616C9.99998 8.00808 9.99998 8.18269 10.0909 8.44462C10.0909 8.79385 10.1818 9.05577 10.1818 9.405C10.1818 10.0162 10.1818 10.7146 10.0909 11.3258C10.0909 11.5877 9.99998 11.7623 9.81816 11.9369C9.54546 11.9369 9.45456 12.0242 9.27274 12.0242C9.18183 12.0242 9.00001 11.9369 8.9091 11.8496C8.63637 11.7623 8.45455 11.5004 8.27274 11.3258C7.72728 10.54 7.18183 9.75423 6.72728 8.96846C6.45455 8.35731 6.18182 7.74616 5.81819 7.04769C5.63637 6.69846 5.36364 6.52385 4.9091 6.52385C4.18182 6.52385 3.45455 6.52385 2.63637 6.52385Z" fill="#0077FF"/>
</svg>
