<svg width="24" height="24" viewBox="0 0 24 24" fill="none" xmlns="http://www.w3.org/2000/svg">
<path d="M12.2109 17.1289C12.242 17.1608 12.2732 17.1607 12.2732 17.1926C13.7999 18.3374 15.3266 19.4823 16.8221 20.659C17.0402 20.818 17.2583 20.9134 17.5076 20.977C18.0061 21.1042 18.3488 20.9452 18.5669 20.5C18.6604 20.3092 18.7227 20.0865 18.7539 19.8957C19.0343 18.6236 19.2836 17.3198 19.564 16.0477C20.0002 13.9169 20.4364 11.818 20.9037 9.68724C21.2465 8.00173 21.6204 6.31622 21.9631 4.5989C22.0254 4.31268 22.0566 4.02647 21.9631 3.70844C21.8385 3.23141 21.4334 2.94519 20.9972 3.0088C20.8726 3.0406 20.7168 3.0724 20.5922 3.1042C17.7257 4.24908 14.8281 5.39396 11.9616 6.50703C9.00165 7.68371 6.04171 8.82859 3.05061 10.0053C2.58325 10.1961 2.08474 10.3869 1.61738 10.6095C1.43044 10.7049 1.24349 10.8321 1.11886 10.9911C0.900764 11.3091 0.994235 11.5954 1.30581 11.7544C1.46159 11.818 1.61738 11.8816 1.77317 11.9134C3.29987 12.3904 4.85774 12.8675 6.38444 13.3445C6.47791 13.3763 6.54023 13.3763 6.6337 13.3127C10.061 11.1819 13.426 9.0194 16.791 6.85685C17.1026 6.66604 17.383 6.47523 17.6945 6.28442C17.8503 6.18901 18.0061 6.12541 18.1931 6.15721C18.3488 6.18901 18.38 6.28442 18.2865 6.41162C18.2554 6.47523 18.1931 6.50703 18.1307 6.57063C16.2613 8.31975 14.3607 10.0689 12.4913 11.818C11.4319 12.8039 10.3726 13.7897 9.28207 14.8074C9.25091 14.8392 9.21975 14.871 9.21975 14.9028C9.15744 15.6342 9.09512 16.3657 9.06397 17.0971C9.00165 17.8922 8.93934 18.6554 8.87702 19.4505C8.87702 19.5777 8.84587 19.7367 8.84587 19.8639C8.87702 19.8639 8.90818 19.8639 8.93934 19.8639C8.97049 19.8639 9.00165 19.8639 9.03281 19.8639C9.37554 19.8003 9.65595 19.6095 9.90521 19.3551C10.2168 19.0689 10.4972 18.7827 10.7776 18.4964C11.2761 18.0512 11.7435 17.606 12.2109 17.1289Z" fill="#22A0DC"/>
</svg>
