<svg width="14" height="14" viewBox="0 0 14 14" fill="none" xmlns="http://www.w3.org/2000/svg">
<path d="M13 5.4351C13 5.54087 12.9375 5.65625 12.8125 5.78125L10.1947 8.33414L10.8149 11.9399C10.8197 11.9736 10.8221 12.0216 10.8221 12.0841C10.8221 12.3245 10.7236 12.4447 10.5264 12.4447C10.4351 12.4447 10.3389 12.4159 10.238 12.3582L7 10.6563L3.76202 12.3582C3.65625 12.4159 3.5601 12.4447 3.47356 12.4447C3.3726 12.4447 3.29688 12.4099 3.24639 12.3401C3.19591 12.2704 3.17067 12.1851 3.17067 12.0841C3.17067 12.0553 3.17548 12.0072 3.1851 11.9399L3.80529 8.33414L1.18029 5.78125C1.0601 5.65144 1 5.53606 1 5.4351C1 5.25721 1.13462 5.14664 1.40385 5.10337L5.02404 4.57692L6.64663 1.29567C6.73798 1.09856 6.85577 1 7 1C7.14423 1 7.26202 1.09856 7.35337 1.29567L8.97596 4.57692L12.5962 5.10337C12.8654 5.14664 13 5.25721 13 5.4351Z" fill="#818181"/>
</svg>
