<svg width="25" height="29" viewBox="0 0 25 29" fill="none" xmlns="http://www.w3.org/2000/svg">
<path fill-rule="evenodd" clip-rule="evenodd" d="M24.5161 6.26936C24.5161 21.0323 15.1097 28 12.7581 28C10.4065 28 1 21.0323 1 6.26936C1 1.52258 8.31613 1 12.7581 1C17.2 1 24.5161 1.47903 24.5161 6.26936Z" stroke="#FFB224" stroke-width="0.870968"/>
<path fill-rule="evenodd" clip-rule="evenodd" d="M12.759 26.2578C11.1041 25.9094 2.78638 19.8998 2.78638 6.26912C2.78638 4.61428 5.09444 2.7417 12.759 2.7417C20.4235 2.7417 22.7315 4.61428 22.7315 6.26912C22.7315 19.8998 14.4138 25.9094 12.759 26.2578Z" stroke="#FFB224" stroke-width="0.870968"/>
<path fill-rule="evenodd" clip-rule="evenodd" d="M17.5473 11.4945L16.328 10.2752C16.1538 10.101 15.8925 10.101 15.7183 10.2752L12.3215 13.672L10.7973 12.1478C10.6231 11.9736 10.3618 11.9736 10.1876 12.1478L8.96829 13.3671C8.7941 13.5413 8.7941 13.8026 8.96829 13.9768L12.0602 17.0687C12.2344 17.2429 12.4957 17.2429 12.6699 17.0687L17.5909 12.1478C17.7215 11.93 17.7215 11.6687 17.5473 11.4945Z" stroke="#FFB224" stroke-width="0.870968"/>
</svg>
